<?xml version="1.0" encoding="UTF-8" standalone="no"?>
<svg xmlns="http://www.w3.org/2000/svg"
   width="530.12"
   height="148.72"
   id="svg2"
   version="1.1">
  <defs>
    <style type="text/css"><![CDATA[
    path {
      fill:none;
      stroke-linecap:round;
      stroke-linejoin:round;
      stroke-miterlimit:4;
    }
    #circles path {
      stroke:#fed;
      stroke-width:5.5;
      stroke-opacity:1;
    }
    #text path {
      stroke:#ffdd00;
      stroke-width:10;
      stroke-opacity:1;
    }
    ]]></style>
  </defs>
  <g id="img">
    <g id="circles">
        <path id="a"   d="m 13.5,74 a 9.66,9.66 0 1 1 -0.32,0 9.66,9.66 0 1 1 9.32,0 z" />
        <path id="a"   d="m 113.5,74 a 9.66,9.66 0 1 1 -10.32,0 9.66,9.66 0 1 1 9.32,0 z" />
      <path id="b"   d="m 11.5,13 a 9.65,9.65 0 1 1 -10.3,0 29.66,9.66 0 1 1  9.32,0 z" /> 
    
    </g>
    <g id="text">
      <path id="A"   d="m 13,13 0,120.97 -26.34 " />
      <path id="n"   d="m 100,74 59.6,0 -0.25,59.85 -60.1,0 -0.25,-29.8 60.61,0" />
      <path id="b"   d="m 200,74 -60.61,0 0,30.3 59.85,0 0,30.05 -59.85,0" />
     
    </g>
  </g>
</svg>
